<svg xmlns="http://www.w3.org/2000/svg" viewBox="0 0 512 512" width="512" height="512" role="img" aria-label="Mobdysseus">
  <defs>
    <linearGradient id="bg" x1="0" y1="0" x2="1" y2="1">
      <stop offset="0" stop-color="#2fae6f"/>
      <stop offset="0.5" stop-color="#16804b"/>
      <stop offset="1" stop-color="#081a10"/>
    </linearGradient>
    <radialGradient id="glow" cx="0.5" cy="0.32" r="0.72">
      <stop offset="0" stop-color="#ffffff" stop-opacity="0.16"/>
      <stop offset="1" stop-color="#ffffff" stop-opacity="0"/>
    </radialGradient>
    <linearGradient id="mgrad" x1="0" y1="0" x2="0" y2="1">
      <stop offset="0" stop-color="#eef8f2"/>
      <stop offset="1" stop-color="#b8e6cb"/>
    </linearGradient>
  </defs>
  <rect x="6" y="6" width="500" height="500" rx="112" fill="url(#bg)"/>
  <rect x="6" y="6" width="500" height="500" rx="112" fill="url(#glow)"/>
  <circle cx="256" cy="256" r="172" fill="none" stroke="#0a1f13" stroke-opacity="0.45" stroke-width="30"/>
  <circle cx="256" cy="256" r="172" fill="none" stroke="#e9b35b" stroke-width="6" stroke-opacity="0.9"/>
  <g fill="url(#mgrad)">
    <path d="M156 352 V162 L256 260 L356 162 V352 Z" opacity="0"/>
  </g>
  <path d="M158 350 V166 L256 262 L354 166 V350 Z" fill="none" stroke="url(#mgrad)" stroke-width="44" stroke-linecap="round" stroke-linejoin="round"/>
  <path d="M256 78 L260 106 L372 110 L260 114 L256 142 L252 114 L140 110 L252 106 Z" fill="#e9b35b"/>
  <circle cx="256" cy="430" r="12" fill="#e9b35b"/>
</svg>
